#!OML:ASF F:\VICON\USERDATA\INSTALL\rory3\rory3.ASF
:FULLY-SPECIFIED
:DEGREES
3367
root 0.431563 15.5232 -6.46831 -198.223 142.976 -179.094
lowerback 22.2817 -2.44605 -2.66149
upperback 14.7233 -3.11669 -3.02069
thorax 3.71996 -1.40901 -1.16257
lowerneck 2.08096 -16.5093 -17.5449
upperneck -5.12202 -22.7261 26.497
head 3.47286 -11.5792 9.4682
rclavicle -4.25399e-014 5.56597e-015
rhumerus -44.0769 50.5807 -104.649
rradius 43.9492
rwrist 28.9844
rhand -54.8112 30.4867
rfingers 7.12502
rthumb -27.1996 2.42737
lclavicle -4.25399e-014 5.56597e-015
lhumerus -53.0359 -38.4803 110.455
lradius 38.7866
lwrist -27.2977
lhand -40.1213 4.895
lfingers 7.12502
lthumb -13.0847 34.4645
rfemur -33.8641 -1.51954 10.2238
rtibia 70.2396
rfoot -16.4534 -20.4744
rtoes 0.795383
lfemur -31.7324 12.0748 -11.2797
ltibia 70.1681
lfoot -14.3247 -2.18972
ltoes 2.75268
3368
root 0.430658 15.5237 -6.46733 -198.261 142.979 -179.088
lowerback 22.3375 -2.43253 -2.66526
upperback 14.7081 -3.10235 -3.02807
thorax 3.67539 -1.40118 -1.16836
lowerneck 2.12476 -16.5056 -17.5524
upperneck -5.1311 -22.7251 26.4972
head 3.46364 -11.5819 9.47405
rclavicle -8.62725e-014 2.54444e-014
rhumerus -44.1212 50.5223 -104.686
rradius 43.9474
rwrist 29.03
rhand -54.8318 30.1693
rfingers 7.12502
rthumb -27.2193 2.11303
lclavicle -8.62725e-014 2.54444e-014
lhumerus -53.1219 -38.4836 110.466
lradius 38.8328
lwrist -27.3436
lhand -40.0588 4.85486
lfingers 7.12502
lthumb -13.0245 34.4283
rfemur -33.8254 -1.5009 10.2217
rtibia 70.2342
rfoot -16.4141 -20.4917
rtoes 0.854395
lfemur -31.6711 12.0876 -11.282
ltibia 70.1382
lfoot -14.3081 -2.15618
ltoes 2.5515
3369
root 0.430524 15.5233 -6.46925 -198.269 142.962 -179.098
lowerback 22.3631 -2.44046 -2.64877
upperback 14.7059 -3.1105 -3.02287
thorax 3.65961 -1.40411 -1.16947
lowerneck 2.07904 -16.5034 -17.5828
upperneck -5.09144 -22.7244 26.4951
head 3.48583 -11.5764 9.47187
rclavicle -2.06736e-014 -1.66979e-014
rhumerus -44.1042 50.5196 -104.656
rradius 43.9542
rwrist 29.0585
rhand -54.8566 30.1376
rfingers 7.12502
rthumb -27.243 2.08508
lclavicle -2.06736e-014 -1.66979e-014
lhumerus -53.1159 -38.4804 110.457
lradius 38.8437
lwrist -27.4024
lhand -40.1343 4.72249
lfingers 7.12502
lthumb -13.0972 34.2912
rfemur -33.8145 -1.49341 10.2138
rtibia 70.2304
rfoot -16.4598 -20.4571
rtoes 1.07183
lfemur -31.6791 12.0693 -11.2953
ltibia 70.1147
lfoot -14.2929 -2.10868
ltoes 2.3619
3370
root 0.431914 15.5242 -6.47157 -198.2 142.927 -179.029
lowerback 22.3119 -2.42668 -2.65643
upperback 14.6977 -3.0924 -3.05413
thorax 3.67392 -1.39392 -1.20356
lowerneck 2.12977 -16.504 -17.5304
upperneck -5.10799 -22.7264 26.4941
head 3.46657 -11.5822 9.46986
rclavicle 3.69739e-014 4.85035e-014
rhumerus -44.0767 50.4014 -104.637
rradius 43.9478
rwrist 29.0799
rhand -54.8791 30.3131
rfingers 7.12502
rthumb -27.2645 2.26395
lclavicle 3.69739e-014 4.85035e-014
lhumerus -53.1864 -38.6171 110.542
lradius 38.8364
lwrist -27.238
lhand -40.2127 4.6464
lfingers 7.12502
lthumb -13.1728 34.2103
rfemur -33.8356 -1.52051 10.1314
rtibia 70.234
rfoot -16.4824 -20.418
rtoes 1.17694
lfemur -31.7078 12.046 -11.3852
ltibia 70.1045
lfoot -14.316 -2.08754
ltoes 2.35799
3371
root 0.432041 15.5258 -6.4722 -198.209 142.925 -179.043
lowerback 22.3045 -2.41012 -2.61604
upperback 14.6792 -3.06497 -3.06831
thorax 3.65308 -1.37637 -1.24588
lowerneck 2.25779 -16.4977 -17.4713
upperneck -5.1849 -22.7185 26.5152
head 3.41752 -11.5912 9.48503
rclavicle -1.07344e-014 -4.77083e-015
rhumerus -44.0784 50.2534 -104.648
rradius 43.9378
rwrist 29.103
rhand -54.8799 30.4781
rfingers 7.12502
rthumb -27.2653 2.42909
lclavicle -1.07344e-014 -4.77083e-015
lhumerus -53.2609 -38.7239 110.622
lradius 38.8089
lwrist -27.1364
lhand -40.0871 4.72934
lfingers 7.12502
lthumb -13.0518 34.301
rfemur -33.8349 -1.52577 10.1461
rtibia 70.2317
rfoot -16.4365 -20.4396
rtoes 1.05078
lfemur -31.7048 12.0132 -11.3739
ltibia 70.1143
lfoot -14.325 -2.09699
ltoes 2.46839
3372
root 0.429782 15.5257 -6.47101 -198.314 142.979 -179.207
lowerback 22.3129 -2.42259 -2.54653
upperback 14.6945 -3.06939 -3.00889
thorax 3.66521 -1.37703 -1.22048
lowerneck 2.20664 -16.4912 -17.5
upperneck -5.19787 -22.7019 26.5132
head 3.42199 -11.5795 9.48651
rclavicle -3.29983e-014 3.02153e-014
rhumerus -44.0294 50.3052 -104.598
rradius 43.9292
rwrist 29.1041
rhand -54.8987 30.6046
rfingers 7.12502
rthumb -27.2832 2.55844
lclavicle -3.29983e-014 3.02153e-014
lhumerus -53.1191 -38.6355 110.552
lradius 38.7382
lwrist -27.3004
lhand -40.0305 4.82317
lfingers 7.12502
lthumb -12.9972 34.3983
rfemur -33.8354 -1.48071 10.3244
rtibia 70.2182
rfoot -16.4278 -20.501
rtoes 1.0583
lfemur -31.7268 12.0335 -11.1927
ltibia 70.1439
lfoot -14.2931 -2.15206
ltoes 2.53787
3373
root 0.427966 15.5248 -6.46997 -198.397 143.042 -179.34
lowerback 22.3058 -2.42377 -2.48675
upperback 14.7104 -3.06029 -2.9643
thorax 3.68543 -1.37081 -1.20861
lowerneck 2.18244 -16.4838 -17.5184
upperneck -5.21488 -22.6865 26.5176
head 3.42075 -11.5707 9.49117
rclavicle 6.32135e-014 6.36111e-015
rhumerus -43.9964 50.3558 -104.569
rradius 43.9243
rwrist 29.0615
rhand -54.7501 30.8785
rfingers 7.12502
rthumb -27.1411 2.81009
lclavicle 6.32135e-014 6.36111e-015
lhumerus -53.0422 -38.5854 110.505
lradius 38.7107
lwrist -27.369
lhand -40.0062 4.89845
lfingers 7.12502
lthumb -12.9737 34.4751
rfemur -33.8416 -1.42463 10.4786
rtibia 70.2016
rfoot -16.439 -20.5608
rtoes 1.12021
lfemur -31.7464 12.0921 -11.0369
ltibia 70.1695
lfoot -14.2647 -2.19327
ltoes 2.47639
3374
root 0.428642 15.5237 -6.4709 -198.371 143.021 -179.284
lowerback 22.3216 -2.41543 -2.50314
upperback 14.6898 -3.05386 -2.99064
thorax 3.65384 -1.36719 -1.22751
lowerneck 2.28762 -16.4771 -17.4923
upperneck -5.26502 -22.6812 26.5336
head 3.38695 -11.5779 9.50557
rclavicle -6.52014e-014 2.3059e-014
rhumerus -44.0795 50.368 -104.648
rradius 43.9446
rwrist 28.9691
rhand -54.6899 30.7989
rfingers 7.12502
rthumb -27.0835 2.72148
lclavicle -6.52014e-014 2.3059e-014
lhumerus -53.1529 -38.635 110.574
lradius 38.7333
lwrist -27.2105
lhand -39.9806 4.92728
lfingers 7.12502
lthumb -12.9491 34.5055
rfemur -33.8333 -1.44605 10.4172
rtibia 70.2022
rfoot -16.4514 -20.5464
rtoes 1.13185
lfemur -31.7319 12.034 -11.0991
ltibia 70.1749
lfoot -14.2848 -2.16566
ltoes 2.37997
3375
root 0.430391 15.523 -6.47187 -198.302 142.959 -179.193
lowerback 22.3153 -2.42912 -2.54009
upperback 14.6791 -3.0779 -3.02219
thorax 3.64531 -1.38023 -1.23611
lowerneck 2.27003 -16.4814 -17.4803
upperneck -5.25075 -22.6859 26.5133
head 3.39047 -11.5783 9.49474
rclavicle 5.84427e-014 2.54444e-014
rhumerus -44.1214 50.4129 -104.69
rradius 43.961
rwrist 28.9442
rhand -54.8758 30.3511
rfingers 7.12502
rthumb -27.2614 2.30148
lclavicle 5.84427e-014 2.54444e-014
lhumerus -53.1892 -38.6776 110.627
lradius 38.7251
lwrist -27.0884
lhand -40.0149 4.93577
lfingers 7.12502
lthumb -12.9822 34.5119
rfemur -33.8396 -1.5104 10.3011
rtibia 70.2205
rfoot -16.4454 -20.4915
rtoes 1.0294
lfemur -31.7382 11.9545 -11.221
ltibia 70.1668
lfoot -14.3107 -2.11788
ltoes 2.12022
